# xmcd
# Track frame offsets:
# 150
# 18726
# 34974
# 55483
# 73644
# 86930
# 106462
# 124877
# 147816
# 163611
# 183373
# 200275
#
# Disc length: 2933 seconds
# Revision: 0
# Processed by: cddbd v1.5.2PL0 Copyright (c) Steve Scherf et al.
# Submitted via: VisiTrax 2.9.10.228 - For more info visit www.synapsa.com
#
DISCID=b10b730c
DTITLE=Bjarte Hjelmeland - Bjarte Hjelmeland
DYEAR=2008
DGENRE=
TTITLE0=Cowboy ta meg med
TTITLE1=For evig og alltid amen
TTITLE2=Brevet til meg
TTITLE3=Du var den
TTITLE4=Hvor er du når det er kveld
TTITLE5=Hvil deg her i det stille
TTITLE6=Fordi jeg elsker deg
TTITLE7=Gresset er blått
TTITLE8=Ta en tåre med meg
TTITLE9=Ein veg vi går
TTITLE10=Hva gjør du her nå?
TTITLE11=Cowboy som oss
EXTD=
EXTT0=
EXTT1=
EXTT2=
EXTT3=
EXTT4=
EXTT5=
EXTT6=
EXTT7=
EXTT8=
EXTT9=
EXTT10=
EXTT11=
PLAYORDER=
